# xmcd
#
# Track frame offsets: 
#        150
#        14797
#        31250
#        65865
#        80447
#        92522
#        108340
#        139465
#        158850
#        177090
#
# Disc length: 2537 seconds
#
# Revision: 0
# Processed by: cddbd v1.5PL3 Copyright (c) Steve Scherf et al.
# Submitted via: ExactAudioCopy v0.90b4
#
DISCID=8409e70a
DTITLE=The Elvin Bishop Group - Feel It!
DYEAR=2002
DGENRE=R&B
TTITLE0=Don't Fight It (Feel It)
TTITLE1=I Just Can't Go On
TTITLE2=So Good
TTITLE3=Crazy 'bout You Baby
TTITLE4=So Fine
TTITLE5=Party Till The Cows Come Home
TTITLE6=Hogbottom
TTITLE7=Be With Me
TTITLE8=As The Years Go Passing By
TTITLE9=Stealin' Watermelons
EXTD=
EXTT0=
EXTT1=
EXTT2=
EXTT3=
EXTT4=
EXTT5=
EXTT6=
EXTT7=
EXTT8=
EXTT9=
PLAYORDER=
